<svg height="512pt" viewBox="-9 0 512 512" width="512pt" xmlns="http://www.w3.org/2000/svg"><path d="m317.03125 464.917969h-277.992188c-17.296874 0-31.449218-14.152344-31.449218-31.449219v-205.042969c0-17.296875 14.152344-31.449219 31.449218-31.449219h246.542969c17.296875 0 31.449219 14.152344 31.449219 31.449219zm0 0" fill="#f9cd45"/><path d="m285.582031 196.976562h-25.296875c17.296875 0 31.449219 14.152344 31.449219 31.449219v236.492188h25.296875v-236.492188c0-17.296875-14.152344-31.449219-31.449219-31.449219zm0 0" fill="#f8b53c"/><path d="m7.589844 397.042969v36.425781c0 17.296875 14.152344 31.449219 31.449218 31.449219h277.992188v-67.875zm0 0" fill="#4890e3"/><path d="m291.734375 397.042969h25.296875v67.875h-25.296875zm0 0" fill="#2970d6"/><path d="m455.453125 360.707031-39.203125-50.664062c-3.839844-4.960938-9.757812-7.867188-16.03125-7.867188h-51.753906c-17.289063 0-31.4375 14.144531-31.4375 31.4375v131.304688h143.464844v-89.449219c.003906-5.34375-1.773438-10.535156-5.039063-14.761719zm0 0" fill="#91bcee"/><path d="m455.453125 360.707031-39.203125-50.664062c-3.839844-4.964844-9.757812-7.867188-16.03125-7.867188h-26.308594c6.273438 0 12.195313 2.902344 16.03125 7.867188l39.203125 50.664062c3.269531 4.226563 5.042969 9.417969 5.042969 14.761719v89.449219h26.308594v-89.449219c0-5.34375-1.777344-10.535156-5.042969-14.761719zm0 0" fill="#4890e3"/><path d="m317.03125 376.457031h143.464844v88.460938h-143.464844zm0 0" fill="#2970d6"/><path d="m434.1875 376.457031h26.308594v88.460938h-26.308594zm0 0" fill="#1f54a1"/><path d="m486.53125 79.105469v81.445312c0 39.335938-32.183594 71.519531-71.515625 71.519531h-114.8125c-39.335937 0-71.515625-32.183593-71.515625-71.519531l-101.792969 55.832031 101.792969-137.277343c0-39.332031 32.179688-71.515625 71.515625-71.515625h114.8125c39.332031 0 71.515625 32.179687 71.515625 71.515625zm0 0" fill="#00bf9e"/><path d="m415.015625 7.589844h-25.296875c39.332031 0 71.515625 32.179687 71.515625 71.515625v81.445312c0 39.335938-32.183594 71.519531-71.515625 71.519531h25.296875c39.332031 0 71.515625-32.183593 71.515625-71.519531v-81.445312c0-39.335938-32.183594-71.515625-71.515625-71.515625zm0 0" fill="#00a983"/><path d="m167.601562 462.914062c0 22.917969-18.578124 41.496094-41.496093 41.496094s-41.496094-18.578125-41.496094-41.496094c0-22.917968 18.578125-41.496093 41.496094-41.496093s41.496093 18.578125 41.496093 41.496093zm0 0" fill="#d0cfd1"/><path d="m126.105469 421.417969c-4.222657 0-8.300781.636719-12.140625 1.8125 16.992187 5.191406 29.355468 20.992187 29.355468 39.683593 0 18.691407-12.363281 34.492188-29.355468 39.6875 3.839844 1.171876 7.917968 1.808594 12.140625 1.808594 22.917969 0 41.496093-18.578125 41.496093-41.496094 0-22.917968-18.578124-41.496093-41.496093-41.496093zm0 0" fill="#9c9b9d"/><path d="m420.613281 462.914062c0 22.917969-18.578125 41.496094-41.496093 41.496094-22.917969 0-41.496094-18.578125-41.496094-41.496094 0-22.917968 18.578125-41.496093 41.496094-41.496093 22.917968 0 41.496093 18.578125 41.496093 41.496093zm0 0" fill="#d0cfd1"/><path d="m379.117188 421.417969c-4.226563 0-8.300782.636719-12.144532 1.8125 16.992188 5.191406 29.355469 20.992187 29.355469 39.683593 0 18.691407-12.363281 34.492188-29.355469 39.6875 3.84375 1.171876 7.917969 1.808594 12.144532 1.808594 22.917968 0 41.496093-18.578125 41.496093-41.496094 0-22.917968-18.582031-41.496093-41.496093-41.496093zm0 0" fill="#9c9b9d"/><path d="m132.609375 462.914062c0 4.652344-3.769531 8.421876-8.421875 8.421876-4.648438 0-8.417969-3.769532-8.417969-8.421876 0-4.648437 3.769531-8.421874 8.417969-8.421874 4.652344 0 8.421875 3.773437 8.421875 8.421874zm0 0" fill="#18191b"/><path d="m388.761719 462.914062c0 4.652344-3.769531 8.421876-8.417969 8.421876-4.652344 0-8.421875-3.769532-8.421875-8.421876 0-4.648437 3.769531-8.421874 8.421875-8.421874 4.648438 0 8.417969 3.773437 8.417969 8.421874zm0 0" fill="#18191b"/><path d="m292.820312 53.675781h130.25v130.25h-130.25zm0 0" fill="#f9e075"/><path d="m400.808594 53.675781h22.261718v130.25h-22.261718zm0 0" fill="#f8b53c"/><path d="m332.902344 53.675781h50.082031v81.140625h-50.082031zm0 0" fill="#f8b53c"/><path d="m359.710938 53.675781h23.273437v81.140625h-23.273437zm0 0" fill="#f8a814"/><g fill="#18191b"><path d="m486.53125 114.1875c4.191406 0 7.589844-3.394531 7.589844-7.585938v-27.496093c0-43.617188-35.488282-79.105469-79.105469-79.105469h-114.8125c-42.761719 0-77.707031 34.105469-79.066406 76.542969l-83.675781 112.84375h-98.421876c-21.527343 0-39.039062 17.515625-39.039062 39.039062v103.671875c0 4.1875 3.398438 7.585938 7.589844 7.585938s7.589844-3.398438 7.589844-7.585938v-103.671875c0-13.15625 10.703124-23.859375 23.859374-23.859375h87.167969l-5.410156 7.296875c-2.125 2.863281-1.964844 6.820313.378906 9.507813s6.242188 3.378906 9.367188 1.664062l33.707031-18.488281c.121094.007813.234375.019531.355469.019531h69.90625c14.214843 21.144532 38.351562 35.09375 65.691406 35.09375h9.238281v149.324219h-294.261718v-22.023437c0-4.191407-3.398438-7.589844-7.589844-7.589844s-7.589844 3.398437-7.589844 7.589844v66.507812c0 21.523438 17.511719 39.039062 39.039062 39.039062h38.929688c4.472656 22.488282 24.355469 39.492188 48.136719 39.492188 23.785156 0 43.664062-17.003906 48.136719-39.492188h156.734374c4.472657 22.488282 24.355469 39.492188 48.136719 39.492188 23.785157 0 43.664063-17.003906 48.136719-39.492188h33.242188c4.191406 0 7.589843-3.398437 7.589843-7.589843 0-.425781-.042969-.84375-.109375-1.25.25-.753907.390625-1.554688.390625-2.390625v-88.207032c0-1.261718-.316406-2.449218-.863281-3.5-.929688-4.890624-2.988281-9.550781-6.046875-13.503906l-39.203125-50.667968c-5.234375-6.769532-13.472656-10.8125-22.03125-10.8125h-6.078125c-.148437-.148438-.296875-.296876-.460937-.433594l-36.167969-30.777344c-3.195313-2.714844-7.984375-2.328125-10.699219.863281-2.714844 3.191407-2.328125 7.980469.863281 10.695313l23.09375 19.652344h-22.304687c-8.976563 0-17.246094 3.054687-23.847656 8.164062v-63.089844h90.394531c43.621093 0 79.109375-35.488281 79.109375-79.109375v-24.757812c0-4.191407-3.398438-7.585938-7.589844-7.585938s-7.589844 3.394531-7.589844 7.585938v24.757812c0 35.25-28.679687 63.929688-63.929687 63.929688h-114.808594c-35.25 0-63.929687-28.679688-63.929687-63.929688 0-2.679687-1.414063-5.164062-3.722657-6.527343-2.304687-1.367188-5.164062-1.414063-7.511719-.125l-71.40625 39.160156 81.148438-109.433594c.96875-1.308594 1.496094-2.890625 1.496094-4.519531-.003906-35.25 28.675781-63.925781 63.925781-63.925781h114.8125c35.25 0 63.925781 28.675781 63.925781 63.925781v27.496093c0 4.191407 3.398438 7.585938 7.589844 7.585938zm-360.425781 382.632812c-18.695313 0-33.90625-15.207031-33.90625-33.90625 0-18.695312 15.210937-33.90625 33.90625-33.90625 18.699219 0 33.90625 15.210938 33.90625 33.90625.003906 18.699219-15.207031 33.90625-33.90625 33.90625zm0-82.988281c-25.175781 0-45.972657 19.054688-48.757813 43.496094h-38.308594c-13.15625 0-23.859374-10.703125-23.859374-23.859375v-29.308594h294.261718v53.167969h-134.578125c-2.78125-24.441406-23.582031-43.496094-48.757812-43.496094zm253.011719 82.988281c-18.699219 0-33.910157-15.207031-33.910157-33.90625 0-18.695312 15.210938-33.90625 33.910157-33.90625 18.695312 0 33.90625 15.210938 33.90625 33.90625 0 18.699219-15.210938 33.90625-33.90625 33.90625zm0-82.988281c-25.175782 0-45.976563 19.054688-48.757813 43.496094h-5.738281v-73.28125h128.566406v73.28125h-25.3125c-2.785156-24.441406-23.585938-43.496094-48.757812-43.496094zm-30.652344-104.066406h51.753906c3.894531 0 7.644531 1.839844 10.03125 4.917969l39.199219 50.667968c.839843 1.082032 1.535156 2.269532 2.078125 3.519532h-126.910156v-35.257813c0-13.152343 10.699218-23.847656 23.847656-23.847656zm-121.917969-120.378906h-34.65625l30.160156-16.539063c.898438 5.742188 2.425781 11.277344 4.496094 16.539063zm0 0"/><path d="m70.378906 303.527344h107.621094c4.191406 0 7.589844-3.398438 7.589844-7.589844s-3.398438-7.585938-7.589844-7.585938h-107.621094c-4.191406 0-7.589844 3.394532-7.589844 7.585938s3.398438 7.589844 7.589844 7.589844zm0 0"/><path d="m70.378906 338.535156h186.503906c4.191407 0 7.589844-3.398437 7.589844-7.585937 0-4.191407-3.398437-7.589844-7.589844-7.589844h-186.503906c-4.191406 0-7.589844 3.398437-7.589844 7.589844 0 4.1875 3.398438 7.585937 7.589844 7.585937zm0 0"/><path d="m382.984375 46.085938h-90.164063c-4.191406 0-7.589843 3.398437-7.589843 7.589843v130.25c0 4.191407 3.398437 7.585938 7.589843 7.585938h130.25c4.191407 0 7.585938-3.394531 7.585938-7.585938v-130.25c0-4.191406-3.394531-7.589843-7.585938-7.589843zm-7.589844 15.175781v65.964843h-34.902343v-65.964843zm40.085938 115.074219h-115.074219v-115.074219h24.90625v73.554687c0 4.191406 3.398438 7.589844 7.589844 7.589844h50.082031c4.191406 0 7.589844-3.398438 7.589844-7.589844v-73.554687h24.90625zm0 0"/></g></svg>